<svg transform="scale(1)" version="1.1" id="lwuWnUv5w0" xmlns="http://www.w3.org/2000/svg" xmlns:xlink="http://www.w3.org/1999/xlink" x="0px" y="0px" viewBox="0 0 500 500" xml:space="preserve" class="pbimage_pbimage__wrapper__image__0LEis false"><title>Machine Learning 1</title><style type="text/css"> .st0{fill:#FFFFFF;} .st1{fill:#111111;} .st2{fill:#128FFF;}
 .st2{fill:#128FFF;}
 .st1{fill:#111111;}
 .st0{fill:#FFFFFF;}</style><g id="board"><path class="st0" d="M46.5,61.4c-2.2,28.9-4.5,57.9-6.2,86.8c-3.5,60.4-4.8,121.3,2,181.4c0.7,6,1.8,12.7,6.4,16.6
		c5.5,4.6,13.6,3.6,20.7,2.2c78.1-15.4,151.6-47.6,224.1-80.3c20.6-9.3,42.4-19.6,54.6-38.7c13.1-20.4,12.5-46.3,11.4-70.5L356,76.7
		c-0.5-11.4-1.5-24-9.8-31.9c-6.3-6-15.3-7.9-23.9-9.5c-44-8.2-246.9-27.8-263.9-11.2C48.7,33.6,47.5,48.7,46.5,61.4z" fill="#FFFFFF"></path><path class="st1" d="M59.7,350.5c-4.2,0-8.2-0.9-11.4-3.6c-4.8-4.1-6-11-6.7-17.1c-7.4-65.5-5-131.4-2-181.6
		c1.7-29,4-58.4,6.2-86.8l0,0l0.8,0l-0.7-0.1c1-12.5,2.2-28.1,12.1-37.7c17.4-16.9,222,3.1,264.6,11c7.9,1.5,17.6,3.3,24.3,9.7
		c8.3,7.9,9.5,20.4,10,32.4l3.6,82.3c1.2,27.1,1.1,51.2-11.5,71c-11.8,18.4-31.8,28.5-54.9,38.9C216,304,145.4,334.3,69.6,349.3
		C66.4,350,63.1,350.4,59.7,350.5z M109,18.4c-28.5,0-45.8,2.1-50,6.3c-9.6,9.2-10.7,23.8-11.7,36.7h-0.8l0.8,0.1v0
		c-2.2,28.4-4.5,57.8-6.2,86.8c-2.9,50.1-5.4,115.9,2,181.3c0.7,6.1,1.7,12.4,6.2,16.1c5.1,4.3,12.6,3.5,20,2.1
		c75.6-14.9,146.2-45.2,224-80.3c22.8-10.3,42.6-20.3,54.2-38.4c12.5-19.3,12.5-43.1,11.3-70.1l-3.6-82.3
		c-0.5-11.8-1.7-23.9-9.5-31.4c-6.3-6.1-15.9-7.8-23.5-9.3c-22.2-4.1-84.5-11.1-142-14.9C151.9,19.3,127.9,18.4,109,18.4z" fill="#111111"></path><path class="st1" d="M87.5,66.2c-2.7-0.1-6,0.1-7,2.6c-0.7,1.8,0.3,3.9,2,5c1.7,1,3.6,1.5,5.5,1.7c18.6,2.6,38.4,6,57.1,2.9
		c8.1-1.3,5.1-5.6-0.8-8c-7.4-3.1-17.1-2-25-2.4L87.5,66.2z" fill="#111111"></path><path class="st1" d="M174.5,69.5c-2.6,0-5.9,0.4-6.8,2.9c-0.6,1.8,0.5,3.9,2.2,4.9c1.7,0.9,3.7,1.4,5.6,1.4
		c18.7,1.7,38.6,4.1,57.2,0.2c8.1-1.7,4.8-5.8-1.1-8c-7.6-2.7-17.2-1.2-25.1-1.2L174.5,69.5z" fill="#111111"></path><path class="st1" d="M157.5,129.8c-2.6,0-5.9,0.4-6.8,2.9c-0.6,1.8,0.6,3.9,2.2,4.9c1.7,0.9,3.7,1.4,5.6,1.4
		c18.7,1.7,38.6,4,57.2-0.1c8.1-1.8,4.8-5.9-1.2-8c-7.6-2.7-17.2-1.1-25.1-1.1L157.5,129.8z" fill="#111111"></path><path class="st1" d="M244.5,128.5c-2.6,0.1-5.9,0.7-6.7,3.2c-0.6,1.9,0.8,3.9,2.4,4.8c1.8,0.8,3.7,1.2,5.7,1.1
		c18.8,0.8,38.8,2.1,57.1-2.8c8-2.1,4.5-6.1-1.6-7.9c-7.7-2.3-17.2-0.3-25.1,0.1L244.5,128.5z" fill="#111111"></path><path class="st1" d="M252.4,47.4c2.3,1.8,4.4,4,6,6.4c0.9,1.3,1.9,2.8,3.5,2.9c1.8,0,2.8-2,3.6-3.6c1.1-2.1,2.4-4.1,4.1-5.8
		c1.1-1.2,2.8-2.3,4.2-1.6c1.1,0.7,1.6,2,1.3,3.2c-0.4,1.2-1,2.3-1.8,3.2l-5,6.5c-0.6,0.7-1.1,1.6-1.4,2.5c-0.4,2,1.1,3.9,2.8,5.2
		s3.6,2.2,4.6,4s0.3,4.7-1.7,4.9c-1.5,0.2-2.7-1.2-3.7-2.3c-1-1.3-2.4-2.4-3.9-3.1c-1.6-0.7-3.4-0.5-4.8,0.4
		c-1.5,1.2-4.2,9.3-7.2,5.3c-1.4-1.9,1.1-8.3,1.2-10.8c0-3.3-1.2-6-2.6-9C250.8,54.2,246.7,43.1,252.4,47.4z" fill="#111111"></path><path class="st1" d="M282.1,60.3c-0.2,2.9,0.3,6.1,2.5,8.2c2.6,2.6,6.9,2.6,9.5-0.1c0.7-0.7,1.3-1.7,1.6-2.6
		c0.6,7.3-1.2,14.7-5,20.9c-0.8,1.1-1.4,2.3-1.8,3.6c-0.4,1.3,0,2.8,1,3.7c1.2,0.8,2.7,0.8,3.9,0c1.1-0.8,2-1.8,2.7-3
		c7.1-11.5,9.3-25.4,6.1-38.5c-0.4-1.5-1.2-3.3-2.7-3.3c-1.3,0-2.2,1.2-2.8,2.3l-6.8,11.3c-1.7-0.9-2.1-3.3-1.7-5.3s1.3-3.8,1.2-5.8
		s-1.6-4.2-3.5-3.9C282.1,48.4,282.3,57.6,282.1,60.3z" fill="#111111"></path><path class="st1" d="M91.4,112.5c-2,0.4-4.3,1-4.6,3.3c-0.1,1.2,0.4,2.4,1.4,3.2c2.2,1.7,5,1.3,7.6,0.9c2-0.3,4.3-0.4,6,0.7
		c-2.6,9.9-6.1,19.6-10.5,28.8c-0.7,1.5-0.1,3.3,1.4,4c1.1,0.5,2.4,0.3,3.4-0.5c3.2-2.9,5.8-6.4,7.6-10.4c3.5-7.1,4.9-15.1,6.3-22.9
		c1.7-1.9,5-1.7,6.9,0c1.8,1.8,2.8,4.3,2.8,6.9c-0.1,2.6-0.4,5.1-0.8,7.6c-0.4,4.2,0,8.5,1.2,12.6c0.5,1.7,2.3,2.8,4,2.3
		c1.2-0.3,2.2-1.4,2.4-2.6c1.4-8.7,1.2-17.7,0.9-26.5c3.7,0.9,7.6,1.9,11.4,0.2c1.5-0.6,2.7-1.8,3.4-3.3c4.5-9.6-13.9-7.3-18.2-7.3
		C113.1,109.5,102.2,110.5,91.4,112.5z" fill="#111111"></path></g><g id="ai"><path class="st0" d="M329.5,335c-16.3,2.2-31.2-10.3-39.3-24.6s-11.6-30.8-19-45.4c-6.2-1.1-11.9,4.7-13,10.9s0.9,12.4,2.9,18.4
		c5.7,16.7,12,34.2,25.2,45.8c20.2,17.9,50.8,17,69.9-2.1c4.2-4.1,17-19.3,13-26c-3.9-6.5-13,5.4-15.9,8.5
		C346.9,327.4,339.4,333.7,329.5,335z"></path><path class="st1" d="M320.6,353.6c-12.8,0-25.1-4.6-34.7-13c-13.7-12.1-20.2-31-25.5-46.1c-1.9-5.5-4.2-12.2-3-18.8
		s7.2-12.6,13.9-11.5c0.2,0,0.4,0.2,0.5,0.4c3.3,6.9,6.2,13.9,8.7,21.2c3,8.1,6,16.6,10.3,24.2c11.4,20.2,27.9,25.6,38.5,24.2l0,0
		c10.1-1.4,17.8-8.4,23.4-14.3c0.3-0.4,0.8-0.9,1.3-1.4c3.1-3.6,8.4-9.6,12.5-9.2c1.4,0.2,2.6,1,3.3,2.3
		c5.1,8.4-12.9,26.7-13.1,26.9c-7,6.9-15.8,11.7-25.4,13.9C327.9,353.2,324.2,353.6,320.6,353.6z M269.7,265.6
		c-5.3,0-9.8,5.2-10.8,10.4c-1.2,6.1,1,12.4,2.9,18c5.4,15.8,11.6,33.7,25,45.5c19.9,17.6,50.1,16.7,68.9-2.1
		c3.6-3.6,6.7-7.6,9.5-11.9c3.8-6,5-10.6,3.4-13.2c-0.4-0.8-1.2-1.4-2.1-1.5c-3.4-0.3-8.7,5.8-11.3,8.7c-0.5,0.6-1,1.1-1.3,1.5
		c-5.7,6.1-13.7,13.4-24.3,14.8c-11.1,1.5-28.3-4.1-40.1-25c-4.4-7.7-7.5-16.2-10.4-24.4c-2.4-7-5.2-13.9-8.4-20.6
		C270.3,265.6,270,265.6,269.7,265.6L269.7,265.6z"></path><path class="st2" d="M285.3,370.9c0.1,1.7,0.6,3.3,1.4,4.8c0.9,1.5,2.5,2.3,4.2,2.2c2.5-0.4,3.7-3.2,4.4-5.7
		c1.6-5.9,11.2-30.5,1-33.2C285.1,335.9,284.5,364.8,285.3,370.9z"></path><path class="st0" d="M274.9,280c-2.4,3.8-6.3,6.5-10.3,8.6c-2.5,1.4-5.3,2.2-8.2,2.2c-2.9-0.2-5.8-1.8-6.7-4.6
		c-0.8-2.5,0.2-5.1,1.5-7.4c2.6-4.7,10.9-16.2,16.7-17C277.7,260.3,278.6,274.2,274.9,280z"></path><path class="st1" d="M256.9,291.6h-0.6c-3.4-0.2-6.5-2.3-7.4-5.1c-0.7-2.2-0.2-4.8,1.5-8c2.4-4.3,10.9-16.5,17.2-17.4
		c3.1-0.7,6.3,0.7,8,3.4c3,4.6,2.3,12.1-0.1,16c-2.2,3.5-5.7,6.4-10.6,8.9C262.5,290.7,259.7,291.5,256.9,291.6z M269.2,262.4
		c-0.4,0-0.9,0-1.3,0.1c-5.4,0.8-13.6,12.1-16.1,16.7c-1.5,2.8-2,5-1.4,6.8c0.8,2.6,3.7,3.9,6,4.1c2.9,0.2,5.7-1.1,7.8-2.1
		c4.7-2.4,7.9-5.1,10-8.3c2.2-3.5,2.8-10.3,0.1-14.3C273.3,263.5,271.3,262.4,269.2,262.4z M274.9,280L274.9,280z"></path><path class="st2" d="M367,284.3c6.2,0.7,11.6,5.1,14.8,10.5c4.6,7.7,5.3,18,0.3,25.4s-16,10.5-23.5,5.6c-3.9-2.6-6.3-6.8-8-11.1
		C346,302.4,349.5,282.4,367,284.3z"></path><path class="st0" d="M326.7,124.3c-20.9,37.9-35.3,79.1-42.6,121.8c-1.7,9.8-2.5,21.4,4.6,28.4c5,5,12.9,6.1,19.8,4.7
		s13.1-5.1,19.2-8.8c36.6-22.2,72.7-46.8,99.3-80.3c11.6-14.6,21.3-31,25.1-49.2s0.9-38.3-10.5-53c-13.1-16.7-40.4-23.6-60.6-17.5
		C355.9,77.8,338.7,102.5,326.7,124.3z"></path><path class="st1" d="M303,280.5c-5.9,0-11.2-1.9-14.8-5.5c-7.4-7.3-6.5-19.4-4.9-29c7.3-42.8,21.7-84,42.7-122
		c10.8-19.5,28.1-46.4,54.9-54.4c21.6-6.5,48.5,1.4,61.4,17.8c10.8,13.7,14.8,33.8,10.7,53.6c-3.4,16.2-11.6,32.4-25.2,49.6
		c-26.9,33.9-63.8,58.7-99.5,80.5c-5.4,3.3-12.1,7.4-19.4,8.9C306.8,280.3,304.9,280.5,303,280.5z M396.5,68.9
		c-5.1,0-10.3,0.7-15.2,2.1c-26.2,7.8-43.4,34.4-54,53.7c-20.9,37.9-35.2,78.9-42.5,121.6c-1.6,9.3-2.5,20.9,4.4,27.7
		c4.4,4.3,11.7,6,19.2,4.5c6.5-1.4,12.2-4.6,19-8.7c35.6-21.7,72.3-46.4,99.1-80.1c13.5-17,21.6-33,25-48.9
		c4-19.4,0.1-38.9-10.4-52.4C431.6,76.2,413.7,68.9,396.5,68.9L396.5,68.9z M326.7,124.3L326.7,124.3z"></path><path class="st1" d="M321.7,163.5c-1.3,3.9-2.3,9.1,1.1,11.5c3.2,2.3,7.7,0,10.4-2.8c4.7-4.9,11.3-16.6,4.5-22.4
		C329.2,142.6,323.8,157.5,321.7,163.5z"></path><path class="st2" d="M320.8,294.8c-9.3,7.6-13.9,19.5-18,30.9c-15.8,44-30.8,89.4-30.2,136.2c0.1,8.8,1.2,18.6,7.7,24.6
		s16.7,6.2,25.6,5.6c22.3-1.5,44.5-5.4,65.6-13c10.1-3.6,20.6-8.6,26.1-17.8c5.8-9.7,4.8-21.8,3.3-33c-3.7-27.4-9.4-54.4-17.1-80.9
		c-3.8-13.6-8.3-27-13.5-40.2c-3.3-8.1-7.1-16-16.2-18.1C343.8,286.6,329.1,288.1,320.8,294.8z"></path><path class="st2" d="M300.5,326.4c-1.2,6.5-1.3,13.4,1.7,19.3c2.9,5.7,8.5,9.7,14.7,11.5c12.8,3.8,27.8-2.4,34.2-14.1
		c6.9-12.6,2.9-36.6-11.6-42.9C320.4,291.7,303.7,308.9,300.5,326.4z"></path><path class="st0" d="M256.1,208.9c-11.3-9.1-28.4-10.3-40.8-2.8s-19.2,23.3-16.1,37.5c3.1,14.2,16,25.7,30.5,27.1
		c13.2,1.3,33.9-6.3,39.2-19.8C274.2,237.4,266.8,217.5,256.1,208.9z"></path><path class="st1" d="M232.7,271.7c-1.1,0-2.1,0-3.1-0.1c-14.8-1.5-27.9-13.1-31.1-27.7c-3.2-14.6,3.7-30.6,16.4-38.3
		s30.1-6.5,41.7,2.8c10.7,8.6,18.5,28.8,13,42.9c-2.5,6.4-8.5,12-17,15.9C246.3,270,239.5,271.6,232.7,271.7z M233.5,202
		c-6.3,0-12.5,1.6-17.9,4.8c-12.2,7.4-18.8,22.9-15.8,36.7c3.1,13.9,15.6,25.1,29.8,26.5c13.7,1.4,33.5-6.8,38.5-19.4
		c4.4-11.1,0-31.1-12.5-41.2C249.3,204.6,241.5,201.9,233.5,202z"></path><path class="st1" d="M114.4,232.5c11.3,7.8,19.2,19.7,25.1,32c6,12.3,10.2,25.5,15.9,38c7.9,17.4,18.6,33.4,31.6,47.4
		c5.4,5.8,12.1,11.7,20,11.3c4.8-0.2,9.2-2.7,13.3-5.1l65.5-38.5c-15.9-8-26.2-23.9-33.3-40.2s-11.5-33.7-19.6-49.5
		c-12.8-24.8-33.7-44.5-59.4-55.6l-67.8,34.3c-4.3,2.2-26.3,9.3-20.1,16.4c2.3,2.7,10.2,1.7,13.6,2.6
		C104.8,227,109.9,229.4,114.4,232.5z"></path><path class="st2" d="M211.6,275.1c-0.7,2.1,0.4,4.4,2.5,5.1c1.2,0.4,2.4,0.3,3.5-0.4c14-8.4,25.8-20.3,35.5-33.5
		c12.1-16.2,21.4-34.4,30.8-52.4c0.8-1.5,1.1-3.1,0.9-4.8c-2-14.2-42.4,29.6-46.4,34.8C226.6,239.4,217.6,256.7,211.6,275.1z"></path><path class="st0" d="M135.5,231.6c-2,1-4.4,2.4-4.7,3.6c-0.2,0.9,1,1.3,2.4,1c1.5-0.3,3-0.8,4.4-1.5c14.3-6.2,29.6-12.7,42.9-21
		c5.8-3.6,2.7-4-2.1-2.6c-6.1,1.8-13,5.9-19,8.8L135.5,231.6z"></path><path class="st0" d="M181,196.4c1.7,0.2,3.4,0.7,4.9,1.4c0.8,0.4,1.8,0.9,2.6,0.4s0.8-1.8,0.7-2.9c-0.1-1.4,0-2.8,0.3-4.1
		c0.2-0.9,0.7-1.9,1.6-2c0.7,0,1.4,0.5,1.6,1.2c0.2,0.7,0.2,1.4,0.1,2.1l-0.6,4.7c-0.1,0.5-0.1,1.1,0,1.7c0.4,1.1,1.7,1.6,2.9,1.7
		c1.2,0,2.4,0.2,3.5,0.6c1,0.6,1.6,2.3,0.6,3c-0.7,0.5-1.7,0.2-2.5-0.1c-0.9-0.3-1.9-0.5-2.9-0.4c-1,0.1-1.8,0.7-2.2,1.6
		c-0.4,1.1,0.7,5.9-2,4.8c-1.3-0.5-1.9-4.5-2.6-5.8c-1-1.5-2.3-2.8-3.9-3.7C182.2,200.2,176.9,195.9,181,196.4z"></path><path class="st0" d="M273,422.2c-5.9,6.2-12.7,12.3-21.1,14.4c-9.4,2.3-19.5-0.9-27.4-6.4s-14.1-13.2-20-20.9
		c-16.4-21.3-32-44.2-37.7-70.5c-4.3-0.4-8.8-0.8-12.9,0.4s-8.2,4.1-9.3,8.3c-1,3.8,0.5,7.8,2,11.4c13.1,31,31.3,59.6,53.9,84.5
		c12,13.2,27.4,26.1,45.1,24.8c13-1,24.1-9.6,33.6-18.6c22.1-20.9,40.9-47.2,47.9-77.3c1.3-5.7,7.9-30.5-2.6-27.1
		c-10,3.3-15.7,23-19.7,31.1C296.6,393.1,285.9,408.6,273,422.2z"></path><path class="st1" d="M243.1,468.9c-18.1,0-33.1-14.2-43.1-25.1c-22.7-25-41-53.6-54-84.7c-1.6-3.8-3.1-7.9-2-11.9
		c1.3-4.9,5.9-7.8,9.8-8.8c4.4-1.2,9.1-0.8,13.2-0.4c0.3,0,0.6,0.3,0.7,0.6c5.6,26,21.4,49.1,37.6,70.2c6,7.9,12.1,15.3,19.8,20.7
		c8.7,6,18.4,8.4,26.8,6.3c8.3-2.1,15.2-8.3,20.7-14.1l0.5,0.5l-0.5-0.5c12.8-13.5,23.5-29,31.7-45.7c0.8-1.7,1.8-4,2.8-6.5
		c3.9-9.4,9.1-22.3,17.3-25c2-0.6,3.6-0.4,4.8,0.6c3.9,3.6,1.5,15.8-0.9,26c-0.1,0.5-0.2,1-0.3,1.3c-6.2,27-22.9,53.8-48.1,77.6
		c-9.2,8.7-20.4,17.7-34,18.8C244.9,468.9,244,468.9,243.1,468.9z M160.4,339.1c-2.1,0-4.2,0.2-6.3,0.7c-3.5,1-7.6,3.5-8.7,7.8
		c-0.9,3.5,0.5,7.3,2,10.9c13,31,31.2,59.5,53.8,84.3c10.2,11.2,25.9,25.9,44.5,24.5c13.1-1,24.1-9.9,33.1-18.4
		c25-23.6,41.5-50.2,47.7-76.9c0.1-0.4,0.2-0.8,0.3-1.3c1.3-5.2,5.1-21.1,1.4-24.5c-0.8-0.7-1.8-0.8-3.3-0.3
		c-7.5,2.5-12.6,15-16.4,24.1c-1.1,2.6-2,4.8-2.9,6.6c-8.3,16.9-19,32.5-32,46.1c-5.7,6-12.7,12.4-21.4,14.6s-19-0.2-28-6.5
		c-7.9-5.5-14-13.1-20.1-21c-16.2-21.1-31.9-44.2-37.7-70.3C164.3,339.3,162.3,339.1,160.4,339.1z"></path><path class="st0" d="M150.6,321.7c4.8-1.7,10-3.2,15-2c26.3,6.5-0.8,38.4-18,38c-8.5-0.2-19.9-7.5-21.5-16.5
		C124,329.4,142.2,324.7,150.6,321.7z"></path><path class="st1" d="M147.9,358.5h-0.3c-8.9-0.2-20.5-7.7-22.2-17.1c-2-11.2,13.1-16.3,22.1-19.4c1-0.4,2-0.7,2.9-1
		c5-1.8,10.4-3.3,15.4-2c8.2,2,12.3,6.9,11.4,13.6C175.6,344.4,159.5,358.5,147.9,358.5z M161.7,320c-3.8,0.2-7.4,1-10.9,2.4l0,0
		c-0.9,0.3-1.8,0.6-2.9,1c-9.1,3.1-22.8,7.7-21.1,17.7c1.5,8.6,12.6,15.7,20.8,15.9c10.9,0.3,26.6-13.5,28.1-24.5
		c0.8-6-2.8-10.1-10.3-12C164.2,320.1,163,320,161.7,320z"></path><path class="st0" d="M101.8,273.3c0.2-6,0.9-12.1,3.6-17.4c2.6-5.4,7.4-9.9,13.3-11s12.6,2.1,14.5,7.7
		c3.2-11.3,15.5-19.2,27.1-17.3s20.9,13.1,20.5,24.8c-0.5,12.7-10.6,23.1-12.9,35.5c-2.4,12.3,2.4,25.7-6.5,36.1
		c-7,8.1-15.3,7.7-24.2,2.8C113.5,321.6,101,300.4,101.8,273.3z"></path><path class="st1" d="M148.8,339c-3.7,0-7.7-1.2-12-3.6c-24.1-13.4-36.5-34.8-35.7-62c0.2-5.1,0.7-11.8,3.6-17.7
		c2.9-6,8.2-10.4,13.9-11.4s11.9,1.7,14.5,6.4c4.1-10.6,16.1-17.8,27.3-16c11.9,1.9,21.5,13.6,21.1,25.6c-0.3,7.2-3.6,13.7-6.7,20
		c-2.5,5-5.2,10.2-6.2,15.7c-0.7,4.2-0.9,8.4-0.7,12.7c0.1,8.2,0.1,16.7-6,23.8C158,336.8,153.7,339,148.8,339z M121,245.4
		c-0.8,0-1.5,0.1-2.3,0.2c-5.2,1-10,4.9-12.8,10.6c-2.2,4.5-3.3,9.7-3.5,17.1l0,0c-0.8,26.6,11.3,47.6,35,60.7
		c9.6,5.3,17.1,4.4,23.2-2.7c5.7-6.7,5.7-14.5,5.6-22.8c-0.2-4.3,0.1-8.7,0.8-13c1.1-5.7,3.8-11,6.3-16.1c3.2-6.4,6.3-12.5,6.6-19.3
		c0.4-11.3-8.7-22.3-19.8-24.1s-23.2,5.9-26.3,16.8c-0.1,0.3-0.4,0.5-0.7,0.5c-0.3,0-0.6-0.2-0.7-0.5
		C130.9,248.5,126.1,245.4,121,245.4z M101.7,273.3L101.7,273.3z"></path><path class="st0" d="M274.4,247.7c0-4.3-0.6-8.8-3.4-12.1c-2.3-2.8-5.9-4.2-9.4-4.9c-11.2-2-22.5,2.4-29.3,11.6
		c-2.8,3.9-4.5,9.6-1.5,13.4c2,2.5,5.5,3.3,8.6,2.9s6-1.9,8.8-3.4c-2,4.9-4,10.1-3.8,15.4s3,10.9,7.9,12.9
		C267.2,289.4,274.4,257,274.4,247.7z"></path><path class="st1" d="M255.8,285c-1.3,0-2.6-0.3-3.8-0.8c-5.6-2.2-8.2-8.4-8.4-13.5c-0.2-4.8,1.3-9.5,3.1-13.9
		c-2.3,1.2-4.7,2.1-7.2,2.5c-3.8,0.5-7.3-0.7-9.3-3.1c-3.2-4-1.5-10.1,1.5-14.3c7-9.3,18.6-13.9,30.1-11.9c4.4,0.9,7.7,2.6,9.8,5.2
		c2.4,2.9,3.6,7,3.6,12.6l0,0c0,7.8-4.7,29.3-13.8,35.5C259.7,284.3,257.8,285,255.8,285z M248.1,254.5c0.2,0,0.4,0.1,0.5,0.2
		c0.2,0.2,0.3,0.5,0.2,0.8c-2,4.8-3.9,9.9-3.7,15.1c0.2,4.7,2.5,10.2,7.5,12.2c2.6,1.1,5.6,0.8,7.9-0.9c8.6-5.9,13.1-26.7,13.2-34.2
		c0-5.2-1-9-3.2-11.6c-2-2.3-5-3.9-9-4.7c-10.9-1.9-21.9,2.4-28.6,11.3c-2.7,3.8-4.2,9.1-1.5,12.5c1.9,2.4,5.4,2.9,7.9,2.6
		c3-0.4,5.8-1.9,8.6-3.3C247.9,254.5,248,254.5,248.1,254.5z M274.4,247.7L274.4,247.7z"></path><path class="st2" d="M411.7,185.7c-6.3,0-12.8-2.7-17.9-5.1c-21.9-10.7-33.4-22.9-35.5-37.6c-0.8-5.7,0-11.4,0.8-17
		c0.6-3.5,0.9-7,1.1-10.6c0.3-9.1-3.2-19.5-11.8-22.1c-0.3-0.1-0.4-0.4-0.4-0.6c0.1-0.3,0.4-0.4,0.6-0.4
		c9.1,2.8,12.8,13.6,12.5,23.1c-0.2,3.6-0.6,7.1-1.1,10.7c-0.8,5.5-1.6,11.2-0.8,16.7c2,14.2,13.4,26.3,34.9,36.8
		c7.4,3.6,18.1,7.8,26.2,2.7c2.1-1.5,4-3.3,5.7-5.2c0.9-1,1.8-2,2.8-2.9c3.6-3.5,7.7-5,11.1-4.1c0.3,0.1,0.4,0.3,0.4,0.6
		c-0.1,0.3-0.3,0.4-0.6,0.4c0,0,0,0,0,0c-4.4-1.1-8.6,2.3-10.2,3.9c-0.9,0.9-1.9,1.9-2.7,2.9c-1.7,2.1-3.7,3.9-5.9,5.4
		C418.2,184.8,415,185.7,411.7,185.7z"></path><path class="st2" d="M369.6,147.6c-6.4,6.1-9,15.5-8.4,24.3c0.5,6.8,2.8,13.8,7.7,18.5c7.2,6.9,19.2,7.8,27.8,2.6
		s13.6-15.3,13.4-25.3C409.7,148,385.7,132.2,369.6,147.6z"></path><path class="st0" d="M381.8,192.6c-3.5-0.1-6.8-1.8-9-4.5c-2.3-2.8-3.8-6.6-4.4-11.3c-1.2-9.5,1.6-18.4,7.4-23.7
		c6.9-6.2,17.9-6.3,23.6-0.1c0.2,0.2,0.2,0.5,0,0.7c-0.2,0.2-0.5,0.2-0.7,0c0,0,0,0,0,0c-5.7-6.2-16.4-5.1-22.2,0.2
		s-8.3,13.6-7.1,22.9c0.6,4.6,2,8.2,4.2,10.8c2.7,3.1,6.8,4.7,10.2,3.9c0.3-0.1,0.6,0.1,0.6,0.4c0.1,0.3-0.1,0.6-0.4,0.6l0,0
		C383.3,192.5,382.5,192.6,381.8,192.6z"></path><path class="st1" d="M136.5,309.2c-0.1,0-0.2,0-0.3-0.1c-18.7-14.1-27.7-39.8-21.9-62.5c0.1-0.3,0.3-0.4,0.6-0.4
		c0.3,0.1,0.4,0.3,0.4,0.6c-5.7,22.3,3.2,47.6,21.5,61.5c0.2,0.2,0.3,0.5,0.1,0.7c0,0,0,0,0,0C136.8,309.2,136.6,309.2,136.5,309.2z
		"></path></g></svg>