<svg width="36" height="36" viewBox="0 0 36 36" fill="none" xmlns="http://www.w3.org/2000/svg">
<path fill-rule="evenodd" clip-rule="evenodd" d="M24.4958 5.72416C29.4769 8.1508 32.9092 13.2626 32.9092 19.1761V31.1851C32.9092 33.8443 30.7535 36 28.0943 36H7.81493C5.15571 36 3 33.8443 3 31.1851V19.1761C3 13.2626 6.43228 8.15082 11.4134 5.72418C11.4043 5.34979 11.439 4.97439 11.5177 4.60363C11.696 3.76421 12.0954 2.97072 12.6854 2.28359C13.2756 1.59645 14.0408 1.03378 14.9228 0.638413C15.805 0.243051 16.7807 0.0254226 17.7757 0.00209628C18.7707 -0.0212291 19.7589 0.150364 20.6649 0.503812C21.5709 0.857255 22.3709 1.38324 23.0038 2.04171C23.6369 2.70017 24.0863 3.47376 24.3178 4.30357C24.448 4.77014 24.5073 5.24757 24.4958 5.72416ZM15.5415 4.41518C15.5931 4.33851 15.6497 4.26417 15.7112 4.19256C15.9624 3.89999 16.2882 3.66043 16.6638 3.4921C17.0394 3.32376 17.4547 3.2311 17.8784 3.22117C18.3021 3.21124 18.7228 3.2843 19.1085 3.43478C19.4943 3.58527 19.8349 3.80922 20.1044 4.08957C20.2028 4.19197 20.2909 4.30092 20.3678 4.41519C19.5822 4.28774 18.7762 4.2215 17.9546 4.2215C17.133 4.2215 16.327 4.28774 15.5415 4.41518ZM7.11242 19.4179C7.11242 13.2964 11.9666 8.33391 17.9545 8.33391C23.9424 8.33391 28.7966 13.2964 28.7966 19.4179V21.9801H7.11242V19.4179ZM7.11242 25.9057V30.9871C7.11242 31.4843 7.50669 31.8874 7.99304 31.8874H27.9159C28.4022 31.8874 28.7966 31.4843 28.7966 30.9871V25.9057H7.11242ZM13.8005 11.2315C11.5063 11.2315 9.64646 13.0913 9.64646 15.3855V16.4241C9.64646 18.7183 11.5063 20.5781 13.8005 20.5781H22.1086C24.4028 20.5781 26.2627 18.7183 26.2627 16.4241V15.3855C26.2627 13.0913 24.4028 11.2315 22.1086 11.2315H13.8005ZM13.7813 14.9103C13.6601 14.9103 13.5617 15.0086 13.5617 15.1299V16.8871C13.5617 17.0084 13.6601 17.1067 13.7813 17.1067H22.1279C22.2492 17.1067 22.3475 17.0084 22.3475 16.8871V15.1299C22.3475 15.0086 22.2492 14.9103 22.1279 14.9103H13.7813Z" fill="#171717"/>
</svg>
